<svg width="512" height="512" viewBox="0 0 512 512" fill="none" xmlns="http://www.w3.org/2000/svg">
<circle cx="256" cy="256" r="256" fill="#111A20"/>
<rect x="109" y="171" width="20" height="170" rx="5" fill="#37444E"/>
<rect x="135" y="153.5" width="44" height="205" rx="5" fill="#2457D6"/>
<rect x="140" y="198.6" width="34" height="3" rx="1" fill="#3683FF" fill-opacity="0.45"/>
<rect x="147.1" y="215" width="19.8" height="2" rx="1" fill="#3683FF" fill-opacity="0.3"/>
<rect x="153.5" y="321.6" width="7" height="7" rx="2" fill="#3683FF" fill-opacity="0.35"/>
<rect x="185" y="148.5" width="38" height="215" rx="5" fill="#3A7BD5"/>
<rect x="190" y="195.8" width="28" height="3" rx="1" fill="#57B9FF" fill-opacity="0.45"/>
<rect x="195.45" y="213" width="17.1" height="2" rx="1" fill="#57B9FF" fill-opacity="0.3"/>
<rect x="200.5" y="324.8" width="7" height="7" rx="2" fill="#57B9FF" fill-opacity="0.35"/>
<rect x="229" y="143.5" width="50" height="225" rx="5" fill="#C08A4C"/>
<rect x="234" y="193" width="40" height="3" rx="1" fill="#FFCF72" fill-opacity="0.45"/>
<rect x="242.75" y="211" width="22.5" height="2" rx="1" fill="#FFCF72" fill-opacity="0.3"/>
<rect x="250.5" y="328" width="7" height="7" rx="2" fill="#FFCF72" fill-opacity="0.35"/>
<rect x="285" y="148.5" width="42" height="215" rx="5" fill="#0E795F"/>
<rect x="290" y="195.8" width="32" height="3" rx="1" fill="#898F97" fill-opacity="0.45"/>
<rect x="296.55" y="213" width="18.9" height="2" rx="1" fill="#898F97" fill-opacity="0.3"/>
<rect x="302.5" y="324.8" width="7" height="7" rx="2" fill="#898F97" fill-opacity="0.35"/>
<rect x="333" y="153.5" width="44" height="205" rx="5" fill="#54A8FF"/>
<rect x="338" y="198.6" width="34" height="3" rx="1" fill="#7EFCFF" fill-opacity="0.45"/>
<rect x="345.1" y="215" width="19.8" height="2" rx="1" fill="#7EFCFF" fill-opacity="0.3"/>
<rect x="351.5" y="321.6" width="7" height="7" rx="2" fill="#7EFCFF" fill-opacity="0.35"/>
<rect x="383" y="171" width="20" height="170" rx="5" fill="#37444E"/>
</svg>
